<svg xmlns="http://www.w3.org/2000/svg" width="196.986" height="73.23" viewBox="0 0 196.986 73.23"><defs><clipPath id="a"><path fill="none" d="M0 0h196.484v72.699H0z"/></clipPath></defs><g clip-path="url(#a)" transform="translate(0 .53)"><path fill="#b01c12" d="M41.184 70.53a5.457 5.457 0 0 0 4.09.692 2.936 2.936 0 0 0 1.39-1.528 1.7 1.7 0 0 0-.917-1.935c-1.42-.634-3.4-.777-4.007-2.566a4.117 4.117 0 0 1 .446-1.935 4.953 4.953 0 0 1 4.618-.487c.417.315.222.923.138 1.325-1.084-.347-2.449-.951-3.533-.2a1.026 1.026 0 0 0-.416 1.386c1.7 1.326 5.452 1.268 4.812 4.644a3.441 3.441 0 0 1-2.727 2.481 5.391 5.391 0 0 1-3.951-.751 1.433 1.433 0 0 1 .057-1.124"/></g><path fill="#b01c12" d="M51.866 63.036c2.057-.258 3.81.2 5.757.144a1.111 1.111 0 0 1 .14.955c-.945.317-2.226-.406-2.67.634l-.14 8.106c-.307.116-.862.116-.946-.291v-8.248l-.2-.2h-2.392c-.223-.35-.278-1.357.446-1.1"/><g fill="#b01c12" clip-path="url(#a)" transform="translate(0 .53)"><path d="M62.014 62.713c1.947-.2 3.588.113 5.535 0 .224.23.14.6.224.895l-.224.142-4.338.06a2.958 2.958 0 0 0 .137 2.769 22.542 22.542 0 0 1 4.2-.057c.251.2.111.6.14.893l-.194.145c-1.559.287-2.951-.289-4.4.2-.332 1.069.056 2.108-.084 3.318.53.519 1.448.173 2 .345l.334-.115 2.2.058c.361.231.2.721.14 1.04a54.62 54.62 0 0 1-5.73 0c.223-3.406-.168-6.2.055-9.692M76.984 67.067a4.133 4.133 0 0 1-1.669-.2 6.3 6.3 0 0 1 1.058-2.421 9.278 9.278 0 0 1 .86 2.421l-.249.2m3.533 4.846c-1.225-3.145-2.336-6.346-3.727-9.4-.362-.058-.947-.231-1.224.144a484.286 484.286 0 0 0-3.45 9.694c.167.373.5.085.862.2.863-1.355.918-3.086 2-4.3l2.863.058c.836 1.27 1.031 2.8 1.724 4.1l.613.058c.306.027.363-.259.335-.549ZM85.579 62.771c.278.086.917-.463.946.227.111 1.213-.249 2.484.056 3.523h.335c1.362-1.328 2.5-2.452 3.81-3.75l1.28.086v.258a43.076 43.076 0 0 0-4.09 4.1c1.085 1.875 2.921 3.46 3.9 5.335a1.422 1.422 0 0 1-1.28 0c-1.113-1.673-2.5-3.23-3.728-4.846-.361-.115-.332.29-.417.493l-.138 4.269c-.279.084-.779.172-.919-.116-.082-3.26.139-6.319.25-9.576M96.872 62.712c.165-.262.5-.087.722-.145.67 1.1-.165 2.712.475 3.893 1.472.2 2.893-.115 4.423 0l.334-.433c.083-1.182.027-2.017.052-3.171.253-.144.586-.319.865-.144.308 3.431 0 6.229 0 9.634a2.4 2.4 0 0 1-.808.116l-.192-.259a22.117 22.117 0 0 0-.057-4.5 24.99 24.99 0 0 0-4.617-.087l-.252.346-.139 4.386c-.194.231-.527.085-.806.116l-.138-.259c-.056-3.55.082-6.492.138-9.49M115.899 68.653a3.982 3.982 0 0 1-2.945 2.658 3.542 3.542 0 0 1-3.117-1.181 4.418 4.418 0 0 1-.668-3.954 3.924 3.924 0 0 1 1.585-2.218 4.009 4.009 0 0 1 3.866.2 4.645 4.645 0 0 1 1.279 4.5m-.331-5.249a4.89 4.89 0 0 0-5.285-.548 5.1 5.1 0 0 0-2.4 3.519 5.417 5.417 0 0 0 2.2 5.537c1.474.607 3.505.981 4.869-.058a5.649 5.649 0 0 0 2.225-3.75 5.776 5.776 0 0 0-1.613-4.7ZM121.853 62.567c.2-.317.446.058.724-.059l.194.262.084 6.721a2.343 2.343 0 0 0 1.251 1.528c.417.4.918-.058 1.333.345a2.945 2.945 0 0 0 2.284-1.931l.053-6.866c.2-.232.585-.144.808-.059l.2.348-.056 6.837a3.3 3.3 0 0 1-1.946 2.51 4.224 4.224 0 0 1-4.339-.9 4.047 4.047 0 0 1-.725-1.96l.14-6.779M133.536 70.469c1.309.635 2.923 1.155 4.343.347a2.046 2.046 0 0 0 .916-2.163c-1.225-2.106-5.841-1.155-4.591-4.9a3.089 3.089 0 0 1 2.587-1.441c.807.143 1.783.086 2.338.69l-.056.955c-.973-.26-2.365-.721-3.421-.144-.64.287-.416 1.066-.2 1.528 1.53 1.155 4.591 1.1 4.422 3.895a3.1 3.1 0 0 1-1.75 2.823 5.054 5.054 0 0 1-4.592-.287c0-.43-.3-.894 0-1.3"/></g><path fill="#b01c12" d="M144.995 63.039c2.061-.2 3.338.087 5.425 0a1.274 1.274 0 0 1 .057.953l-4.478.288a5.076 5.076 0 0 0 0 2.422 31.02 31.02 0 0 0 4.421.148 1.21 1.21 0 0 1 .057 1.036l-4.536.144c-.332 1.069.058 2.337-.055 3.318l.443.345 4.148.145c.052.289.221.812-.141 1.04h-5.257l-.192-.149v-9.49l.108-.2M157.842 65.68c.5 0 1.236.085 1.236-.66 0-.568-.45-.638-.885-.638h-1.011v1.3h.66m1.662 2.039h-.52l-1.009-1.686h-.793v1.686h-.434v-3.66h1.545c.936 0 1.253.365 1.253.969 0 .718-.485.987-1.112 1l1.069 1.686Zm1.077-1.831a2.669 2.669 0 1 0-2.654 2.854 2.694 2.694 0 0 0 2.654-2.854Zm-5.825 0a3.165 3.165 0 1 1 3.171 3.288 3.227 3.227 0 0 1-3.171-3.288Z"/><g fill="#b01c12"><path d="M126.704 38.762c.69.064 2.074-.262 2.387.78a10.217 10.217 0 0 1 .5 3.714c-1.068.651-2.01 2.02-3.2.78-1.317-.522-.627-1.889-.564-2.932 1.132-.39.692-1.561.879-2.342m-29.652-6.291c1.285-.18 2.746-.122 3.329 1.334a4.456 4.456 0 0 1-2.509 4.24c-.583-.184-1.284-.306-1.521-1.031-.232-1.513-1.049-3.574.7-4.543Zm-.374 10.053c.994.455 1.988-.4 2.816.4 1.045 1.2.77 3.031.275 4.4-.275.631-.884 1.431-1.6 1.49-.66-.229-1.712-.229-1.874-1.2-.664-1.717.053-3.491.384-5.092Zm-86.477-5.17c.906-1.12 1.777-2.349 3.208-2.711 1.672.218 2.718 1.481 3.764 2.711a12.479 12.479 0 0 1-.591 7.088c-.663.867-1.6 1.877-2.754 1.841-1.673.434-2.58-.937-3.346-2.1-.21-1.735-.7-3.4-.279-5.1v-1.737Zm155.848 11.413a8.309 8.309 0 0 1 .1-1.174 6.379 6.379 0 0 0 .08-.824.8.8 0 0 0-.05-.317c-.147-.018-.323-.034-.323-.034a2.507 2.507 0 0 0-.591-.06l.017-.006-.367.147-2.2.15a14.727 14.727 0 0 1-4.484-.051l-.174-.035-2.887-1.538-.17-.283a7.4 7.4 0 0 1-1.082-3.687 4.643 4.643 0 0 1 .55-2.243.681.681 0 0 0-.035.059l.058-.119a.421.421 0 0 0-.023.06 5.333 5.333 0 0 1 2.584-2.347l.788-.457a4.352 4.352 0 0 1 3.883-1.031 4.35 4.35 0 0 0 1.7-.027 3.68 3.68 0 0 1 2.263-.122 3.719 3.719 0 0 0 .506.067 2.574 2.574 0 0 0 .042-.275 9.113 9.113 0 0 0-.09-1.041 10.2 10.2 0 0 1-.105-1.31 4.575 4.575 0 0 1 .15-1.112 5.31 5.31 0 0 1-.144-1.208c0-.277.015-.557.027-.83s.019-.522.019-.744a1.938 1.938 0 0 0-.241-1.082c-.027 0-.108-.012-.108-.012-.5-.06-.751-.079-.865.02l-.392.349-.525-.052a9.412 9.412 0 0 0-1.958.079 9.578 9.578 0 0 1-3.074-.071l-2.226.267c-2.473.234-4.811.456-6.252 2.246l-.223.273-.33.111c-1.348.458-2.288 1.873-3.2 3.241l-.238.358-.161.125c-1.778 1.349-1.868 3.415-1.971 5.81 0 0-.148 1.849-.187 2.362a11.6 11.6 0 0 1 .924 3.647 7.9 7.9 0 0 0 2.669 4.124l.334.254.1.4c.157.629.809 1.02 1.853 1.59a9.911 9.911 0 0 1 1.693 1.079l.133.108.1.145c.192.291.647.337 1.563.368a7.459 7.459 0 0 1 1.765.262 4.178 4.178 0 0 1 2.69 0 2.943 2.943 0 0 0 1.162.16l.19-.04.189.02a3.717 3.717 0 0 0 1.161-.178 4.056 4.056 0 0 1 2.989.151c.353-.032.781-.067.781-.067a4.088 4.088 0 0 0 1.571-.293 4.252 4.252 0 0 0 .141-1.183v-.489c0-.166-.007-.358-.007-.541a7.676 7.676 0 0 1 .213-1.792 3.5 3.5 0 0 1-.3-1.36Zm-57.474-6.478c-.195-.691-.289-.927-.645-1.1l-1-.478.388-1.035a7.238 7.238 0 0 1 1.08-1.779c.561-.743.841-1.163.841-1.6a1.2 1.2 0 0 0-.04-.3l-.156-.59.385-.476a2.206 2.206 0 0 0 .4-1.423 7.434 7.434 0 0 0-.2-1.479c-.218-.341-.64-1.017-.64-1.017-.842-1.441-1.3-2.077-2.191-2.106l-.5-.016-.343-.377c-.874-.955-2.617-.872-4.018-.806h-.1a17.946 17.946 0 0 1-4.849.008 10.778 10.778 0 0 1-3.8.125 13.259 13.259 0 0 0-2.526-.079 2.97 2.97 0 0 1-2.865.086 4.723 4.723 0 0 0-.579-.212s-.088.086-.113.115a.162.162 0 0 0-.056.133 2.685 2.685 0 0 0 .144.6 4.44 4.44 0 0 1 .24 1.3 2.445 2.445 0 0 1-.433 1.294 2.335 2.335 0 0 0-.106.708 7.991 7.991 0 0 0 .451 2.183l.137.459-.143.38a7.892 7.892 0 0 0-.445 2.752 12.8 12.8 0 0 0 .223 2.317l.051.274-.075.269a9.156 9.156 0 0 0-.284 2.411 22.679 22.679 0 0 0 .415 3.924l.09.509-.309.418a2.385 2.385 0 0 0-.319 1.353 5.4 5.4 0 0 0 .307 1.781l.223.606-.382.524a3.133 3.133 0 0 0-.416 1.718 3.469 3.469 0 0 0 .194 1.156 10.7 10.7 0 0 0 4.261-.484l.418-.159.42.154a6.179 6.179 0 0 0 4.025 0l.576-.209.507.339a2.541 2.541 0 0 0 .818.142l.633.087a14.087 14.087 0 0 1 3.78-.117 15.71 15.71 0 0 0 2.244.054l3.23-1.047c.633-.249.9-.88 1.279-1.889a8.665 8.665 0 0 1 .8-1.732l.232-.357.276-.089c.025-.074.1-.268.122-.349-.019-.214-.043-.428-.043-.636 0-.513.047-1.011.091-1.47s.078-.853.078-1.2a2.293 2.293 0 0 0-.324-1.3 3.81 3.81 0 0 1-1.456-2.274Zm87.667 8.011a6.86 6.86 0 0 0-.142-1.17 9.073 9.073 0 0 1-.178-1.6 4.772 4.772 0 0 1 .1-.872l-1.177-.893a11.637 11.637 0 0 0-3.791-2.221l-.708-.216-.3-1.275a7.813 7.813 0 0 1-.3-1.927 3.84 3.84 0 0 1 .238-1.322.833.833 0 0 0-.039.1l.053-.178a.627.627 0 0 0-.014.079 3.694 3.694 0 0 1 1.76-2.051s.073-.047.138-.093a7.037 7.037 0 0 1 2.773-2.747 5.141 5.141 0 0 0 1.712-1.524 2.46 2.46 0 0 0-.815-.971l-.35-.29-.077-.447c-.211-1.275-1.657-2.161-2.931-2.941l-.253-.157-.26.04c-1.062.133-1.178.23-1.237.473l-.151.609-.583.225a6.369 6.369 0 0 0-2.819 2.678l-.267.446-.509.112c-.132.03-.353.327-.546.587a3.332 3.332 0 0 1-1.966 1.51l-.614.134-.461-.426a2.322 2.322 0 0 1-.725-1.7 3.176 3.176 0 0 1-.5-1.614 6.531 6.531 0 0 1 .276-1.661 4.843 4.843 0 0 0 .214-1.177 1.343 1.343 0 0 0-.016-.151c-.222-.281-.606-.3-2 .047a8.1 8.1 0 0 1-1.935.323h-.78l-.206-.454c-.015 0-.048-.011-.077-.016a4.654 4.654 0 0 1-2.687.1 7.65 7.65 0 0 0-.754-.1c-.018.134-.04.266-.04.266l-.036.279a6.067 6.067 0 0 1 .2 1.356 14.216 14.216 0 0 1-.16 1.857 12.582 12.582 0 0 0-.139 1.552 3.1 3.1 0 0 0 .239 1.28l.178.417-.133.434a7.792 7.792 0 0 0-.362 2.3 5.026 5.026 0 0 0 .188 1.431l.059.173-.074 3.019-.07 5.835.067.735a8.356 8.356 0 0 1 .088 1.07 3.515 3.515 0 0 1-.187 1.154 8.829 8.829 0 0 0-.151 1.648 14.053 14.053 0 0 0 .2 2.166c.1-.032.206-.061.206-.061a3.567 3.567 0 0 1 1.639-.281l.312.036.255.181a1.022 1.022 0 0 0 .628.1l.8-.247.287.322c.06 0 .1 0 .182-.006a2.785 2.785 0 0 1 3.066-.178c.648.3.7.267.828.175l.224-.127a6.54 6.54 0 0 0-.132-.479 4.85 4.85 0 0 1-.3-1.512 2.739 2.739 0 0 1 .315-1.287l.08-.147.119-.125a1.111 1.111 0 0 0 .1-.622c0-.131 0-.268-.009-.392 0-.161-.009-.322-.009-.49a3.8 3.8 0 0 1 .268-1.536l.462-1.064 1.082.421a4.7 4.7 0 0 1 2.022 1.836l.329.447-.15-.157 1.364 1.431a9.8 9.8 0 0 0 1.6 1.566 3.747 3.747 0 0 1 2.692 1.554c.423.483.682.761 1.019.811l.359.117.2.119a2.488 2.488 0 0 0 .691-.028 3.444 3.444 0 0 1 1.786.121l.078.032.084.048a7.3 7.3 0 0 1 .273-1.477 4.1 4.1 0 0 0 .2-1.009 1.137 1.137 0 0 0-.1-.476l-.225-.513.246-.5a1.812 1.812 0 0 0 .183-.838Zm-54.335 2.739a15.4 15.4 0 0 1-1.574-4.012 13.747 13.747 0 0 0-1.239-3.367l-.139-.238-.019-.278a5.562 5.562 0 0 0-1.252-3.005l.132.145a3.291 3.291 0 0 1-.874-2.749c.017-.486.017-.791-.1-.932a5.535 5.535 0 0 1-1.7-4.171 5.05 5.05 0 0 0-.481-2.2 5.691 5.691 0 0 1-.876-2.54 4.293 4.293 0 0 0-.377-1.392l-.039-.076-.034-.081c-.2-.505-.233-.585-1.556-.355a6.094 6.094 0 0 1-2.5-.006 1.432 1.432 0 0 1-.467-.032l-.221.064a3.033 3.033 0 0 1-2.194-.02c-.39.018-1.685.072-1.685.072a15.448 15.448 0 0 1-4.367-.137c-.057.03-.133.063-.133.063a1.917 1.917 0 0 1-2.217-.065c-.187-.05-.322-.083-.373-.1a2.331 2.331 0 0 0-.21.932 2.514 2.514 0 0 0 .058.539 3.94 3.94 0 0 1 .338 1.558 8.691 8.691 0 0 1-.223 1.736 6.873 6.873 0 0 0-.173 1.219 1.14 1.14 0 0 0 .233.714 2.8 2.8 0 0 0 .4.032 2.753 2.753 0 0 1 2.268.92l.284.446-.026 1.4v.4A5 5 0 0 1 119.498 41a6.32 6.32 0 0 1-.856 2.573 3.469 3.469 0 0 0-.566 1.526c0 .035 0 .069.006.1l.047.568-.408.4a6.329 6.329 0 0 0-1.32 3.221l-.209.935s-.242.024-.477.044a6.151 6.151 0 0 1-1.058 2.751 4.837 4.837 0 0 0-.673 1.528 6.137 6.137 0 0 0 .613-.081 5.68 5.68 0 0 1 1.61-.079 3.836 3.836 0 0 1 1.974-.115s.237.023.419.044a3.578 3.578 0 0 1 2.506-.042c.544.153.684.141.794.079a1.483 1.483 0 0 0 .159-.388l.118-.535.345-.321.152-.353a3.075 3.075 0 0 1 .885-1.421l.044-.038.046-.032c1.852-1.3 4.159-1.06 6.013-.868l.336.032c2.222-.087 3.22 1.963 3.819 3.2 0 0 .089.173.175.345a2.434 2.434 0 0 0 1.878-.271l.647-.375.622.412c.586.388 1.326.281 2.474.06l1.651-.3s.147.331.264.585l.191.034a1.089 1.089 0 0 0 .329-.228 5.042 5.042 0 0 0-.121-.842l-.022-.114ZM80.588 27.303l.154-.057c-.066.029-.129.035-.194.061h.04Zm-24.4 23.121-.156-.219-.005-1.788c0-.245.005-.491.005-.736a6.935 6.935 0 0 0-.474-2.97l-.313-.648.42-.582a2.915 2.915 0 0 0 .481-1.77 14.212 14.212 0 0 0-.183-1.9l-.2-1.726s.3-.834.382-1.068a8.92 8.92 0 0 0 .019-.542 20.292 20.292 0 0 0-.2-2.451 20.976 20.976 0 0 1-.2-2.505 8.278 8.278 0 0 1 .264-2.075l-.079-1.235a3.541 3.541 0 0 0-.156-1.249.949.949 0 0 0-.642.155l-.63.737-.855-.457a3.957 3.957 0 0 0-1.7-.309s-.343-.026-.681-.058l-.4.325-.125.062a2.279 2.279 0 0 1-2.252-.207 3.382 3.382 0 0 1-.888.06 6.375 6.375 0 0 0-.143 1.08c0 .351.021.707.041 1.084s.046.789.046 1.213a8.995 8.995 0 0 1-.174 1.645 20.367 20.367 0 0 1 .18 2.743c0 .7-.024 1.371-.049 2.042s-.046 1.3-.046 1.942a15.458 15.458 0 0 0 .308 3.295l.012.345-.139 1.336a4.427 4.427 0 0 1-1.177 3.309c.022-.023.049-.032.069-.057l-.148.15c.033-.03.046-.064.078-.093-.69.755-1.625.822-2.8.171l-.18-.1.114.05c-1.592-.568-1.858-2.2-2-3.072l-.077-.46.061-.244a.415.415 0 0 0 .008-.079 2.356 2.356 0 0 0-.169-.644 4 4 0 0 1-.276-1.306 2.225 2.225 0 0 1 .253-.959 11.978 11.978 0 0 0 .156-1.877 12.4 12.4 0 0 0-.166-2.022l-.065-.4.187-.361a2.221 2.221 0 0 0 .127-.91c0-.211-.008-.426-.015-.626v-.792a4.666 4.666 0 0 1-.51-2.082 11.465 11.465 0 0 1 .2-1.849 9.678 9.678 0 0 0 .169-1.5 2.489 2.489 0 0 0-.168-.886 3.109 3.109 0 0 0-1.248.26l-.5.218-.495-.238a3.969 3.969 0 0 0-3.593-.145l-.183.1-.2.036a3.7 3.7 0 0 1-1.754-.173 2.9 2.9 0 0 0-.093.785c0 .333.027.686.048 1l.032.549a3.849 3.849 0 0 1 .357 1.56 8.154 8.154 0 0 1-.213 1.647 6.381 6.381 0 0 0-.176 1.233 1.8 1.8 0 0 0 .128.686l.1.216-.063 2.236a70.303 70.303 0 0 0-.058 2.47 16.4 16.4 0 0 0 .326 3.617l.08.338-.115.329a2.36 2.36 0 0 0-.126.8 8.11 8.11 0 0 0 .334 1.9s.166.826.273 1.367a5.558 5.558 0 0 1 1.434 2.5c.356 1.077.539 1.473 1.16 1.671a5.4 5.4 0 0 1 2.1.915c.722.466 1.056.646 1.459.552l.453-.11.408.225a3.99 3.99 0 0 0 2.137.162l.728-.045a4.959 4.959 0 0 0 1.057-.481 4.384 4.384 0 0 1 3.309-.727l.519.125.256.467c.233.426.753.5 1.8.547l.651.048.219-.042a3.9 3.9 0 0 1 1.406-.126l.557.06a7.1 7.1 0 0 0 3.839-.286 5.27 5.27 0 0 0-1-2.378l-.484-.8ZM80.68 29.476a12.967 12.967 0 0 0-.207-2.146 4.72 4.72 0 0 1-2.119.148c-.787-.09-.947-.067-1.141.153l-.911 1.033-.833-.955-.276.009a3.041 3.041 0 0 1-1.581-.3c-.266.007-.537.011-.537.011-.382-.018-.56-.022-.662.053l-.272.2-.334.028a15.736 15.736 0 0 1-4.107-.383 4.4 4.4 0 0 1-3.4.079 2.869 2.869 0 0 0-1.588.111l-.082 2.634a4.881 4.881 0 0 1 .077.715 11.745 11.745 0 0 1-.1 1.309 9.6 9.6 0 0 0-.081 1.048.9.9 0 0 0 .164.611 1.788 1.788 0 0 1 .51-.012 4.938 4.938 0 0 1 1.983-.079l.91.088.228.137a2.714 2.714 0 0 1 1.271 2.561c0 .192-.008.37-.015.529a7.615 7.615 0 0 0-.015.462 1.143 1.143 0 0 0 .067.488l.312.485-.184.55a4.755 4.755 0 0 0-.23 1.546 15.822 15.822 0 0 0 .186 2.026 17.3 17.3 0 0 1 .206 2.32 6.974 6.974 0 0 1-.417 2.343 7.733 7.733 0 0 1 .194 1.687 18.2 18.2 0 0 1-.157 2.086 15.955 15.955 0 0 0-.145 1.822 5.39 5.39 0 0 0 .181 1.332 4.32 4.32 0 0 0 .9.061c.048-.015.2-.071.2-.071a2.38 2.38 0 0 1 1.863-.081l.991.083c.664.1.919.122 1.148-.034a2.664 2.664 0 0 1 2.909-.081l.159.063a1.53 1.53 0 0 0 .069-.276 2.728 2.728 0 0 0-.206-.989l-.1-.23.056-1.472c.033-.8.067-1.606.067-2.406a15.838 15.838 0 0 0-.234-2.95l-.082-.437.223-.389a1.531 1.531 0 0 0 .168-.771 8.038 8.038 0 0 0-.125-1.155 9.637 9.637 0 0 1-.151-1.475 4.405 4.405 0 0 1 .023-.454l.013-.124.035-.119a3.22 3.22 0 0 0 .144-1.008 10.459 10.459 0 0 0-.091-1.171 12.708 12.708 0 0 1-.1-1.4 4.82 4.82 0 0 1 .443-2.107c.958-2.182 2.822-1.792 3.717-1.6a2.081 2.081 0 0 0 .923.064 4.184 4.184 0 0 0-.167-.829l-.209-.764.15-.373a6.105 6.105 0 0 0 .367-2.227Zm-53.109 8.091.011-.355v-.2a5.619 5.619 0 0 0-2.321-4.679l-.293-.208-.131-.337a5.248 5.248 0 0 0-1.838-2l-.364-.291a4.965 4.965 0 0 1-1.9-1.025c-.586-.458-.879-.656-1.214-.627l-.452.044-.367-.265c-1.262-.918-3.276-.9-5.051-.9h-.78l-.19-.063c-.23-.078-.433 0-.956.223a4.41 4.41 0 0 1-1.806.47 8.218 8.218 0 0 1-2.35 1 5.093 5.093 0 0 0-1.683.69 4.635 4.635 0 0 1-2.047 2.051c-.688.4-.977.608-1.081.989l-.137.512-.471.244c-.148.078-.244.307-.413.781a4.814 4.814 0 0 1-.885 1.526c-.09.313-.732 2.539-.809 2.8 0 .3-.016 1.494-.016 1.494a64 64 0 0 0-.022 1.455c0 1.993.189 3.922 1.352 5.266l.156.178.075.228c.436 1.3 1.732 4.4 4.334 5.112l.357.1.24.278a5.947 5.947 0 0 0 3.349 1.465s.615.138.7.164l.6.032a3.622 3.622 0 0 1 1.556.287c2.112.255 5.082.4 6.939-1.117l.334-.269h.429a2.213 2.213 0 0 0 .969-.392l1.079-.52-.193.085a8.381 8.381 0 0 0 2.435-2.452 12.811 12.811 0 0 1 2.365-2.57c.248-.176.3-.564.35-1.349a4.511 4.511 0 0 1 .838-2.651l.038-.934c.025-.5.05-.96.05-1.4a4.753 4.753 0 0 0-.595-2.585l-.184-.3Z"/><path stroke="#b01c12" d="M.891 18.282c0-.1.37-.349.821-.553s1.157-.537 1.564-.741 1.055-.5 1.44-.658 1-.416 1.357-.575 1.176-.491 1.81-.741 1.615-.618 2.18-.823 1.417-.5 1.892-.658 1.216-.38 1.646-.494 1.392-.39 2.139-.616 1.783-.5 2.3-.619 1.391-.26 1.933-.329 1.413-.158 1.933-.205 1.15-.119 1.4-.163.62-.1.823-.124 1.117-.17 4.511-.328 6.466-.325 6.828-.37.992-.121 1.4-.165 1.481-.12 2.386-.165 2.014-.083 2.468-.083 1.174.019 1.6.042 1.1.078 1.482.123.977.139 1.316.206.653.271.7.454a3.438 3.438 0 0 0 .206.575c.067.134.178.338.246.451a4.577 4.577 0 0 0 .288.412 3.472 3.472 0 0 0 .577.493c.226.157.651.436.946.617a1.088 1.088 0 0 0 .781.206 2.126 2.126 0 0 1 .534-.167l.618-.081a3.5 3.5 0 0 0 .658-.165c.182-.067.756-.307 1.275-.535s1.186-.522 1.481-.658a6.364 6.364 0 0 1 1.151-.371 1.373 1.373 0 0 1 1.153.741 1.748 1.748 0 0 0 1.316 1.193l.986.287c.385.113 1.014.281 1.4.371s.848.22 1.028.287.439.18.577.248a.583.583 0 0 0 .535-.083 5.6 5.6 0 0 1 .617-.369 3.723 3.723 0 0 1 .7-.247 1.58 1.58 0 0 1 .657 0c.158.046.289-.028.289-.165a2.362 2.362 0 0 1 .082-.535l.164-.575a2.271 2.271 0 0 1 .247-.535c.09-.136.221-.322.288-.412a1.393 1.393 0 0 1 .33-.288c.112-.067.408-.216.658-.329a10.131 10.131 0 0 1 .987-.37c.294-.09.813-.238 1.151-.329s1.154-.293 1.81-.452a15.727 15.727 0 0 0 1.687-.493c.271-.113.679-.3.9-.41a5.9 5.9 0 0 0 1.234-1.523c.452-.725 1.045-1.262 1.316-1.192s.7.178.946.245a12.845 12.845 0 0 1 1.234.452c.431.182 1.1.5 1.481.7s1.014.5 1.4.658a9.8 9.8 0 0 0 1.235.412c.294.067.738.161.986.206l.9.162a5.487 5.487 0 0 1 .865.248 1.052 1.052 0 0 0 .823-.082c.225-.136.577-.339.78-.453a7.292 7.292 0 0 0 .7-.452c.181-.137.44-.338.576-.452a5.276 5.276 0 0 0 .493-.493 6.187 6.187 0 0 0 .452-.618 7.172 7.172 0 0 0 .37-.7 6.984 6.984 0 0 0 .289-.824.912.912 0 0 1 .575-.576c.249-.067.675-.16.947-.2s.975-.139 1.562-.206 1.587-.16 2.221-.208 1.707-.081 2.386-.081 1.808.019 2.508.042 1.813.1 2.47.165 1.691.16 2.3.206 1.573.156 2.14.246a22.742 22.742 0 0 1 2.591.658 5.362 5.362 0 0 1 2.344 1.563c.43.589 1.855.125 3.165-1.029a9.242 9.242 0 0 1 5.184-2.1 14.075 14.075 0 0 0 5.881-1.81 10.22 10.22 0 0 1 5.636-1.4c1.4.226 3.938.541 5.635.7a20.841 20.841 0 0 1 4.771.987 23.707 23.707 0 0 1 4.082 2.511 3.768 3.768 0 0 0 4.647-.288 5.973 5.973 0 0 1 4.936-1.4 12.534 12.534 0 0 1 4.771 2.8 9.865 9.865 0 0 0 3 2.262 10.684 10.684 0 0 0 1.193.165 3.724 3.724 0 0 1 .658.082c.2.045.481.119.616.164a2.045 2.045 0 0 0 .288.081c.022 0 .282.058.577.125a8.879 8.879 0 0 0 1.069.165 3.441 3.441 0 0 1 .988.247 5.665 5.665 0 0 1 .824.472 8.893 8.893 0 0 1 .739.616 5.08 5.08 0 0 0 .762.577c.216.125 1.01.476 1.768.781s1.877.805 2.488 1.112a13.507 13.507 0 0 0 1.481.657 5.5 5.5 0 0 0 .782.144 2.66 2.66 0 0 0 .8-.061 4.994 4.994 0 0 1 .616-.124 1.232 1.232 0 0 1 .412.042c.1.034.583.256 1.07.492s1.291.583 1.789.761a12.422 12.422 0 0 0 1.974.5c.587.089 1.088.163 1.111.163s.3.075.616.166a2.321 2.321 0 0 1 .742.329 2.733 2.733 0 0 0 1.109.205 13.742 13.742 0 0 1 1.892.248c.521.113.331.354.816.535a2.838 2.838 0 0 0 1.44.164 5.041 5.041 0 0 1 2.221-.164 5.7 5.7 0 0 1 1.109.288 3.683 3.683 0 0 1 .926.575 2.331 2.331 0 0 1 .507.615c.052.134.1.283.117.332a.466.466 0 0 1-.058.249l-.068.081-.074.079a1.7 1.7 0 0 1-.8.163h-1.263c-.312 0-.627-.157-.93-.165l-.3-.006a4.137 4.137 0 0 1-.821.107l-.137-.006c-.136-.006-.28-.008-.417-.006s-.272-.121-.382-.107l-.105.012a15.288 15.288 0 0 1-2.02.178h-1.478c-1.477 0-2.969-.006-4.465-.012s-3-.012-4.51-.022-3.009.133-4.509.122c-1.3-.014-2.65-.162-4.021-.16s-2.751.006-4.129.01-2.751 0-4.089 0l-1.339-.006c-1.4-.026-3.035-.067-3.63-.091s-1.57-.016-2.164.02-1.568.07-2.163.076l-2.165.02c-.594.006-1.592 0-2.215-.012h-.557c-.555 0-1.1-.006-1.659 0s-1.11.006-1.675.01-1.137-.105-1.724-.1c-1.439.024-2.848.147-4.252.147s-2.791-.008-4.177-.02-2.77-.028-4.16-.04-2.795-.335-4.2-.334c-1.2.018-2.4.343-3.613.347s-2.421 0-3.632 0-2.415-.006-3.615-.006-2.4 0-3.588.012l-.742-.014a2.46 2.46 0 0 0-2.18-.042l-1.971-.02c-.816-.009-1.622-.016-2.421-.018h-.8c-.858 0-1.609.006-1.669.011s-.21.011-.33.018-.272.016-.333.018-.694.006-1.41.008-1.883.025-2.6.057-1.882.032-2.6 0-1.884-.055-2.6-.053-1.261-.089-1.218-.2a.577.577 0 0 0 .041-.323c-.022-.069-.164.016-.315.188a2.265 2.265 0 0 1-.353.345 8.454 8.454 0 0 1-1.019-.016l-.494.01c-.5.01-1 .016-1.5.022s-1-.064-1.483-.057h-.482a19.562 19.562 0 0 1-3.15-.222l-1.15-.02c-1.149-.02-2.319.22-3.484.212s-2.33-.011-3.5-.011h-1.164c-1.277.005-2.334.011-2.35.009l-.058-.006c-.015 0-.041-.006-.056-.006l-.057-.006a1.477 1.477 0 0 1-.22-.23h-.2c-.2 0-.6.256-.8.252l-.612-.011c-.207-.004-.414 0-.627 0-1.262.032-2.557-.068-3.86-.063s-2.611.107-3.9.1-1.461.51-2.694.51-2.424.01-3.546.036q-1.253.02-2.508.025t-2.512 0c-.838-.006-2.784-.537-3.624-.549l-.841-.012c-.927-.02-1.7-.037-1.706-.039s-.03-.007-.041-.011l-.041-.007-.041-.009c-.011 0-.24.07-.507.159h-.239c-1.012.016-1.259-.139-.729-.141h-1.604c-1.582.036-3.15-.087-4.718-.071s-2.378.573-3.953.579-1.878-.393-3.478-.39h-1.6a343.32 343.32 0 0 1-3.33-.153l-.132-.022c-.035-.008-.094-.018-.131-.024s-.095-.016-.131-.024a.375.375 0 0 0-.1-.005.724.724 0 0 0-.1.012l-.1.011c-.018 0-.152.02-.3.038l-.155.012c-.155.01-.321.018-.488.022s-.338-.105-.5-.107h-.164a23.809 23.809 0 0 1-2.376.254h-1.022c-1.021 0-2.03-.006-3.035-.01s-2 .1-3 .107-1.993-.1-2.992-.087c-.533 0-1.1.006-1.676.012s-1.158-.131-1.725-.129-1.113.141-1.615.115l-.5-.024a2.039 2.039 0 0 1-.854-.222 3.096 3.096 0 0 1-.012-.283v-.357"/></g></svg>